# xmcd CD database file
#
# Track frame offsets:
#	150
#	17510
#	33543
#	47430
#	69305
#	83588
#	98518
#	112163
#	127740
#	142673
#	156033
#	167845
#	184845
#	198868
#	217390
#	230655
#	243090
#	259170
#
# Disc length: 3638 seconds
#
# Revision: 0
# Processed by: cddbd v1.4PL0 Copyright (c) Steve Scherf et al.
# Submitted via: CDex 1.50
#
DISCID=e70e3412
DTITLE=Various Artist - Country Heartbeat
DYEAR=1900
DGENRE=Country
TTITLE0=Seven spanish angels
TTITLE1=Always on my mind
TTITLE2=Highwayman
TTITLE3=Go where the lonely go
TTITLE4=You never gave up on me
TTITLE5=I don't know why
TTITLE6=You've really got a hold on me
TTITLE7=Whateve happened to old fashioned love
TTITLE8=Longer
TTITLE9=Behind closed doors
TTITLE10=I walk the line'
TTITLE11=The pages of my mind
TTITLE12=You can lead a heart to love
TTITLE13=Good hearted woman
TTITLE14=Rose garden
TTITLE15=Since I found you
TTITLE16=Love's gonna get you someday
TTITLE17=Thats the way love goes
EXTD=
EXTT0=
EXTT1=
EXTT2=
EXTT3=
EXTT4=
EXTT5=
EXTT6=
EXTT7=
EXTT8=
EXTT9=
EXTT10=
EXTT11=
EXTT12=
EXTT13=
EXTT14=
EXTT15=
EXTT16=
EXTT17=
PLAYORDER=
